<?xml version="1.0" encoding="utf-8"?>
<!-- Generator: Adobe Illustrator 16.0.0, SVG Export Plug-In . SVG Version: 6.00 Build 0)  -->
<!DOCTYPE svg PUBLIC "-//W3C//DTD SVG 1.1//EN" "http://www.w3.org/Graphics/SVG/1.1/DTD/svg11.dtd">
<svg version="1.1" id="Layer_1" xmlns="http://www.w3.org/2000/svg" xmlns:xlink="http://www.w3.org/1999/xlink" x="0px" y="0px"
	 width="500px" height="500px" viewBox="0 0 500 500" enable-background="new 0 0 500 500" xml:space="preserve">
<g>
	<path fill="#010101" d="M59.024,92.295c112.418,0,224.302,0,336.491,0c-3.541,20.074-6.996,39.665-10.5,59.534
		c-112.411,0-224.444,0-336.694,0c-5.448,30.85-10.839,61.391-16.331,92.495c112.439,0,224.327,0,336.5,0
		c-6.187,34.598-12.26,68.692-18.476,102.759c-0.229,1.263-1.671,2.788-2.839,3.223c-43.5,16.203-87.025,32.308-130.58,48.328
		c-1.438,0.529-3.348,0.529-4.753-0.067c-37.603-15.941-75.163-32.01-112.757-47.98c-1.982-0.843-2.482-1.861-2.032-4.124
		c1.193-6.006,2.197-12.059,3.255-18.098c1.414-8.066,2.811-16.135,4.207-24.168c-0.693-0.208-0.939-0.344-1.184-0.344
		c-26.288-0.025-52.576-0.006-78.863-0.113c-2.567-0.012-2.787,1.549-3.16,3.68c-3.203,18.255-6.496,36.493-9.735,54.738
		c-3.083,17.377-6.132,34.761-9.219,52.28c1.124,0.562,2.024,1.072,2.96,1.473c62.922,26.908,125.842,53.823,188.8,80.624
		c1.607,0.684,3.804,0.649,5.456,0.04c72.717-26.873,145.4-53.864,218.117-80.74c2.269-0.839,3.322-2.037,3.772-4.577
		c7.151-40.431,14.354-80.849,21.559-121.267c15.818-88.698,31.645-177.393,47.46-266.089c1.411-7.915,2.77-15.843,4.176-23.902
		C354.662,0,215.187,0,75.55,0C70.063,30.644,64.617,61.065,59.024,92.295z"/>
	<path fill="#010101" d="M59.024,92.295C64.616,61.065,70.063,30.644,75.55,0c139.637,0,279.111,0,419.104,0
		c-1.406,8.06-2.765,15.987-4.176,23.901c-15.815,88.699-31.645,177.393-47.46,266.091c-7.205,40.418-14.406,80.833-21.561,121.264
		c-0.449,2.54-1.503,3.743-3.772,4.578c-72.717,26.879-145.397,53.867-218.116,80.742c-1.652,0.609-3.85,0.644-5.456-0.041
		c-62.959-26.803-125.879-53.717-188.801-80.623c-0.938-0.4-1.836-0.911-2.961-1.473c3.087-17.52,6.138-34.902,9.22-52.28
		c3.239-18.245,6.534-36.484,9.736-54.74c0.372-2.128,0.593-3.689,3.16-3.679c26.288,0.109,52.575,0.088,78.863,0.113
		c0.244,0,0.49,0.138,1.184,0.342c-1.396,8.035-2.792,16.102-4.208,24.171c-1.059,6.037-2.062,12.09-3.255,18.098
		c-0.45,2.262,0.05,3.283,2.033,4.125c37.593,15.97,75.153,32.038,112.756,47.981c1.405,0.594,3.316,0.594,4.754,0.065
		c43.553-16.02,87.081-32.126,130.579-48.329c1.169-0.434,2.609-1.958,2.839-3.225c6.215-34.062,12.289-68.159,18.477-102.758
		c-112.173,0-224.061,0-336.5,0C37.48,213.22,42.872,182.68,48.32,151.83c112.251,0,224.282,0,336.694,0
		c3.504-19.868,6.96-39.46,10.5-59.534C283.326,92.295,171.442,92.295,59.024,92.295z"/>
</g>
</svg>
