<?xml version="1.0" encoding="utf-8"?>
<!-- Generator: Adobe Illustrator 16.0.0, SVG Export Plug-In . SVG Version: 6.00 Build 0)  -->
<!DOCTYPE svg PUBLIC "-//W3C//DTD SVG 1.1//EN" "http://www.w3.org/Graphics/SVG/1.1/DTD/svg11.dtd">
<svg version="1.1" id="Layer_1" xmlns="http://www.w3.org/2000/svg" xmlns:xlink="http://www.w3.org/1999/xlink" x="0px" y="0px"
	 width="841.889px" height="595.281px" viewBox="0 0 841.889 595.281" enable-background="new 0 0 841.889 595.281"
	 xml:space="preserve">
<circle fill="#FFFFFF" cx="420.73" cy="297.427" r="256.286"/>
<g>
	<g>
		<path d="M152.836,297.641c0,147.666,119.979,268.105,268.106,268.105C569.07,565.748,689.05,445.308,689.05,297.641
			c0-147.666-120.441-268.106-268.107-268.106S152.836,149.975,152.836,297.641z M651.21,297.641
			c0,126.9-103.367,230.269-230.268,230.268c-126.9,0-230.268-103.367-230.268-230.268S294.042,67.374,420.943,67.374
			S651.21,170.741,651.21,297.641z"/>
		<path d="M287.12,235.806c-3.692,3.691-5.538,8.306-5.538,13.382c0,4.615,1.846,9.69,5.538,13.383l121.824,121.824
			c3.692,3.691,8.307,5.537,13.383,5.537s9.689-1.846,13.381-5.537l121.826-121.824c7.383-7.384,7.383-19.382,0-26.765
			c-7.385-7.384-19.381-7.384-26.766,0L422.327,344.249L313.884,235.806C306.501,228.423,294.503,228.423,287.12,235.806
			L287.12,235.806z"/>
	</g>
</g>
</svg>
