<?xml version="1.0" encoding="utf-8"?>
<!-- Generator: Adobe Illustrator 16.0.0, SVG Export Plug-In . SVG Version: 6.00 Build 0)  -->
<!DOCTYPE svg PUBLIC "-//W3C//DTD SVG 1.1//EN" "http://www.w3.org/Graphics/SVG/1.1/DTD/svg11.dtd">
<svg version="1.1" xmlns="http://www.w3.org/2000/svg" xmlns:xlink="http://www.w3.org/1999/xlink" x="0px" y="0px" width="512px"
	 height="512px" viewBox="0 0 512 512" enable-background="new 0 0 512 512" xml:space="preserve">
<g id="Layer_1">
	<g id="Layer_2">
		<circle cx="256" cy="256" r="256"/>
	</g>
	<g id="Capa_1" display="none">
		<g display="inline">
			<path id="LinkedIn_3_" fill="#FFFFFF" d="M429.5,281.771v124.402h-72.163V290.047c0-29.197-10.405-49.04-36.518-49.04
				c-19.971,0-31.751,13.435-37.008,26.363c-1.895,4.655-2.469,11.178-2.469,17.613v121.176H209.25c0,0,0.968-196.606,0-216.969
				h72.107v30.752c-0.097,0.253-0.309,0.462-0.406,0.743h0.406v-0.743c9.634-14.78,26.699-35.844,65.026-35.844
				C393.95,184.099,429.5,215.105,429.5,281.771z M133.763,84.577c-24.666,0-40.821,16.184-40.821,37.526
				c0,20.768,15.679,37.499,39.896,37.499h0.436c25.213,0,40.834-16.73,40.834-37.499C173.618,100.76,158.487,84.577,133.763,84.577
				z M97.247,406.174h72.123V189.177H97.247V406.174z"/>
		</g>
	</g>
	<g id="XMLID_468_" display="none">
		<path id="XMLID_469_" display="inline" fill="#FFFFFF" d="M340.007,279.968c-0.701-0.336-26.958-13.269-31.624-14.945
			c-1.904-0.686-3.944-1.353-6.116-1.353c-3.545,0-6.523,1.767-8.844,5.238c-2.623,3.897-10.562,13.179-13.017,15.953
			c-0.32,0.365-0.759,0.802-1.019,0.802c-0.235,0-4.3-1.672-5.529-2.207c-28.167-12.236-49.546-41.658-52.479-46.62
			c-0.417-0.713-0.435-1.037-0.439-1.037c0.104-0.377,1.051-1.328,1.539-1.817c1.429-1.415,2.98-3.281,4.479-5.085
			c0.709-0.854,1.421-1.71,2.12-2.518c2.175-2.53,3.143-4.495,4.265-6.77l0.588-1.182c2.741-5.447,0.399-10.042-0.356-11.526
			c-0.621-1.242-11.708-28-12.886-30.812c-2.836-6.783-6.581-9.941-11.786-9.941c-0.483,0,0,0-2.025,0.084
			c-2.466,0.104-15.897,1.873-21.834,5.616c-6.298,3.969-16.95,16.625-16.95,38.879c0,20.031,12.71,38.944,18.167,46.136
			c0.136,0.181,0.385,0.55,0.746,1.078c20.901,30.522,46.956,53.143,73.368,63.694c25.429,10.157,37.469,11.331,44.313,11.331
			c0.001,0,0.001,0,0.001,0c2.879,0,5.181-0.227,7.21-0.426l1.289-0.123c8.785-0.777,28.09-10.781,32.48-22.983
			c3.459-9.611,4.37-20.112,2.07-23.924C346.164,282.922,343.447,281.619,340.007,279.968z"/>
		<path id="XMLID_470_" display="inline" fill="#FFFFFF" d="M256.783,73.01c-97.545,0-176.903,78.762-176.903,175.573
			c0,31.313,8.379,61.963,24.255,88.788l-30.384,89.628c-0.566,1.67-0.145,3.519,1.09,4.776c0.893,0.911,2.103,1.402,3.338,1.402
			c0.474,0,0.951-0.07,1.417-0.22l93.457-29.697c25.574,13.664,54.479,20.876,83.731,20.876
			c97.536,0.002,176.885-78.752,176.885-175.553C433.669,151.772,354.321,73.01,256.783,73.01z M256.783,387.565
			c-27.525,0-54.187-7.949-77.104-22.987c-0.77-0.506-1.665-0.767-2.565-0.767c-0.476,0-0.953,0.074-1.418,0.22l-46.814,14.883
			l15.112-44.587c0.489-1.444,0.245-3.036-0.655-4.266c-17.453-23.846-26.677-52.02-26.677-81.478c0-76.644,62.858-139,140.122-139
			c77.252,0,140.104,62.355,140.104,139C396.888,325.219,334.037,387.565,256.783,387.565z"/>
	</g>
</g>
<g id="Layer_2_1_">
	<g>
		<path id="f_1_" fill="#FFFFFF" d="M270.906,447.111V272.773h58.494l8.775-67.961h-67.27v-43.384
			c0-19.67,5.439-33.076,33.68-33.076l35.957-0.015V67.549c-6.219-0.808-27.564-2.661-52.408-2.661
			c-51.879,0-87.396,31.667-87.396,89.809v50.115h-58.672v67.961h58.672v174.338H270.906z"/>
	</g>
</g>
</svg>
