<?xml version="1.0" encoding="utf-8"?>
<!-- Generator: Adobe Illustrator 16.0.0, SVG Export Plug-In . SVG Version: 6.00 Build 0)  -->
<!DOCTYPE svg PUBLIC "-//W3C//DTD SVG 1.1//EN" "http://www.w3.org/Graphics/SVG/1.1/DTD/svg11.dtd">
<svg version="1.1" id="Layer_1" xmlns="http://www.w3.org/2000/svg" xmlns:xlink="http://www.w3.org/1999/xlink" x="0px" y="0px"
	 width="500px" height="500px" viewBox="0 0 500 500" enable-background="new 0 0 500 500" xml:space="preserve">
<path fill="#010101" d="M159.595,419.674c0-18.303-16.428-27.455-49.283-27.455c-31.461,0-47.192,9.519-47.192,28.554
	c0,18.485,17.124,27.729,51.374,27.729C144.562,448.502,159.595,438.893,159.595,419.674z M141.973,212.386
	c0-11.166-2.987-20.5-8.96-28.004c-5.974-7.504-14.835-11.257-26.583-11.257c-24.692,0-37.037,13.27-37.037,39.81
	c0,24.71,12.345,37.065,37.037,37.065C130.125,250,141.973,237.462,141.973,212.386z M222.32,123.431v55.46
	c-7.169,2.196-15.034,4.209-23.597,6.04c3.186,7.871,4.779,15.558,4.779,23.062c0,23.246-7.268,43.059-21.804,59.441
	c-14.536,16.381-34.149,26.678-58.841,30.887c-7.965,1.465-13.889,3.935-17.771,7.413c-3.883,3.479-5.825,8.786-5.825,15.924
	c0,5.674,2.24,10.387,6.721,14.14c4.48,3.752,10.255,6.681,17.324,8.786c7.069,2.105,14.884,4.118,23.447,6.04
	c8.562,1.922,17.125,4.256,25.687,7.001c8.563,2.745,16.378,6.178,23.447,10.296s12.843,9.975,17.324,17.571
	s6.721,16.61,6.721,27.044c0,55.644-36.142,83.464-108.423,83.464c-13.74,0-26.683-1.144-38.829-3.432
	c-12.147-2.287-23.696-6.04-34.648-11.257c-10.952-5.217-19.663-12.722-26.135-22.514c-6.472-9.793-9.707-21.462-9.707-35.006
	c0-30.2,18.121-50.792,54.361-61.774v-1.098c-13.342-7.504-20.012-19.035-20.012-34.594c0-19.951,6.272-32.488,18.817-37.614v-1.098
	c-14.337-4.394-26.234-14.323-35.693-29.789c-9.459-15.467-14.188-30.613-14.188-45.439c0-25.442,9.458-46.628,28.375-63.559
	c18.916-16.932,42.314-25.396,70.191-25.396c19.116,0,36.838,4.302,53.167,12.904C176.72,136.335,198.424,132.033,222.32,123.431z
	 M317.302,365.312h-66.308c0.796-8.236,1.195-20.5,1.195-36.79V161.319c0-17.206-0.398-28.919-1.195-35.143h66.308
	c-0.797,6.04-1.194,17.388-1.194,34.045v168.301C316.107,344.812,316.505,357.076,317.302,365.312z M496.812,304.361v53.812
	c-14.138,7.139-31.461,10.708-51.972,10.708c-12.345,0-22.998-1.83-31.959-5.491s-15.93-8.236-20.909-13.728
	c-4.978-5.491-8.91-12.63-11.798-21.415c-2.887-8.786-4.729-17.205-5.524-25.259c-0.798-8.054-1.195-17.481-1.195-28.279v-96.369
	h0.598v-1.098c-1.395,0-3.285-0.091-5.676-0.274c-2.39-0.183-4.182-0.274-5.376-0.274c-4.182,0-10.057,0.549-17.622,1.647v-52.165
	h28.674V105.31c0-9.884-0.598-18.029-1.793-24.435h67.802c-1.194,7.504-1.791,22.605-1.791,45.301h51.074v52.165
	c-2.986,0-7.317-0.184-12.992-0.549c-5.675-0.366-9.907-0.549-12.694-0.549h-25.388v100.212c0,23.979,8.661,35.967,25.985,35.967
	C476.402,313.422,487.255,310.401,496.812,304.361z M324.77,44.359c0,10.616-3.884,19.905-11.649,27.867
	s-17.323,11.943-28.674,11.943c-11.55,0-21.306-3.981-29.271-11.943c-7.965-7.962-11.947-17.251-11.947-27.867
	c0-10.799,3.933-20.226,11.798-28.279C262.891,8.027,272.698,4,284.446,4c11.55,0,21.156,4.072,28.823,12.218
	C320.937,24.363,324.77,33.743,324.77,44.359z"/>
</svg>
