<?xml version="1.0" encoding="utf-8"?>
<!-- Generator: Adobe Illustrator 16.0.0, SVG Export Plug-In . SVG Version: 6.00 Build 0)  -->
<!DOCTYPE svg PUBLIC "-//W3C//DTD SVG 1.1//EN" "http://www.w3.org/Graphics/SVG/1.1/DTD/svg11.dtd">
<svg version="1.1" id="Layer_1" xmlns="http://www.w3.org/2000/svg" xmlns:xlink="http://www.w3.org/1999/xlink" x="0px" y="0px"
	 width="595.28px" height="841.89px" viewBox="0 0 595.28 841.89" enable-background="new 0 0 595.28 841.89" xml:space="preserve">
<g>
	<path fill="#010101" d="M295.718,841.219L51.717,773.48L-2.665,163.578H594.84l-54.432,609.803l-244.694,67.838"/>
	<path fill="#8C8C8C" d="M493.8,734.555l46.523-521.106H296.083V789.36L493.8,734.544"/>
	<path fill="#8C8C8C" d="M296.083,514.452v-74.8h-98.974l-6.836-76.599h105.811v-74.812H108.521l20.17,226.203h167.382
		 M296.083,633.912l-0.327,0.1l-83.296-22.506l-5.33-59.657h-75.09l10.48,117.445l153.218,42.542l0.345-0.094V633.912"/>
	<path fill="#010101" d="M52.929-2.165h38.008v37.553h34.78V-2.165h38.013v113.729h-38.013V73.483h-34.78v38.081H52.929V-2.165
		 M213.717,35.553h-33.465V-2.165h104.964v37.718h-33.488v76.016h-38.011V35.553 M301.867-2.165h39.637l24.389,39.957l24.35-39.957
		h39.653v113.729h-37.858V55.199l-26.145,40.438h-0.659l-26.173-40.438v56.365h-37.193V-2.165 M448.816-2.165h38.033v76.139h53.446
		v37.59h-91.479V-2.165"/>
	<path fill="#FFFFFF" d="M469.703,439.652h-173.87v74.8h92.1l-8.678,97.007l-83.425,22.516v77.824l153.333-42.505L467.87,459.74
		l1.821-20.088 M483.211,288.245H296.612v74.804h179.917l1.497-16.811l3.404-37.928l1.775-20.069"/>
</g>
</svg>
