<?xml version="1.0" encoding="utf-8"?>
<!-- Generator: Adobe Illustrator 16.0.0, SVG Export Plug-In . SVG Version: 6.00 Build 0)  -->
<!DOCTYPE svg PUBLIC "-//W3C//DTD SVG 1.1//EN" "http://www.w3.org/Graphics/SVG/1.1/DTD/svg11.dtd">
<svg version="1.1" xmlns="http://www.w3.org/2000/svg" xmlns:xlink="http://www.w3.org/1999/xlink" x="0px" y="0px" width="500px"
	 height="500px" viewBox="0 0 500 500" enable-background="new 0 0 500 500" xml:space="preserve">
<g id="Layer_1" display="none">
	<g display="inline">
		<path fill="#010101" d="M59.024,92.173c112.418,0,224.302,0,336.491,0c-3.541,20.048-6.996,39.613-10.5,59.456
			c-112.412,0-224.444,0-336.694,0c-5.448,30.809-10.839,61.31-16.331,92.374c112.439,0,224.327,0,336.5,0
			c-6.186,34.552-12.26,68.602-18.475,102.622c-0.229,1.262-1.671,2.785-2.839,3.22c-43.5,16.182-87.026,32.265-130.58,48.262
			c-1.438,0.529-3.348,0.529-4.753-0.065c-37.603-15.92-75.163-31.969-112.757-47.916c-1.982-0.843-2.482-1.86-2.032-4.12
			c1.193-5.998,2.197-12.043,3.255-18.074c1.414-8.056,2.811-16.114,4.207-24.137c-0.693-0.207-0.939-0.342-1.184-0.342
			c-26.288-0.027-52.576-0.006-78.863-0.112c-2.567-0.012-2.787,1.547-3.16,3.675c-3.203,18.229-6.496,36.444-9.735,54.665
			c-3.083,17.354-6.132,34.716-9.219,52.212c1.124,0.561,2.024,1.07,2.96,1.47c62.922,26.874,125.842,53.753,188.8,80.519
			c1.607,0.683,3.804,0.647,5.456,0.039c72.717-26.837,145.4-53.793,218.117-80.632c2.268-0.838,3.322-2.036,3.772-4.571
			c7.151-40.378,14.354-80.743,21.559-121.107c15.818-88.58,31.644-177.157,47.46-265.737c1.411-7.905,2.769-15.821,4.175-23.871
			C354.663,0,215.188,0,75.551,0C70.063,30.602,64.617,60.984,59.024,92.173z"/>
		<path fill="#010101" d="M59.024,92.173C64.617,60.984,70.063,30.602,75.551,0c139.637,0,279.111,0,419.104,0
			c-1.406,8.05-2.764,15.965-4.175,23.869c-15.816,88.582-31.645,177.159-47.46,265.739c-7.206,40.364-14.407,80.728-21.561,121.104
			c-0.449,2.537-1.503,3.737-3.772,4.573c-72.717,26.841-145.398,53.794-218.116,80.634c-1.652,0.608-3.85,0.644-5.456-0.04
			c-62.959-26.768-125.879-53.646-188.801-80.518c-0.938-0.399-1.836-0.909-2.961-1.47c3.087-17.496,6.138-34.857,9.22-52.212
			c3.239-18.221,6.534-36.437,9.736-54.668c0.372-2.125,0.593-3.684,3.16-3.673c26.288,0.107,52.575,0.086,78.863,0.111
			c0.244,0,0.49,0.137,1.184,0.342c-1.396,8.023-2.792,16.08-4.208,24.139c-1.059,6.029-2.062,12.074-3.255,18.074
			c-0.45,2.26,0.05,3.277,2.033,4.12c37.593,15.947,75.153,31.996,112.756,47.916c1.405,0.595,3.316,0.595,4.754,0.065
			c43.553-15.997,87.081-32.083,130.579-48.262c1.169-0.435,2.609-1.958,2.839-3.223c6.215-34.018,12.289-68.068,18.476-102.622
			c-112.173,0-224.061,0-336.5,0c5.491-31.063,10.883-61.562,16.331-92.373c112.251,0,224.282,0,336.694,0
			c3.504-19.842,6.96-39.409,10.5-59.456C283.326,92.173,171.442,92.173,59.024,92.173z"/>
	</g>
</g>
<g id="Layer_2">
	<path d="M251.149,266.885v-88.251h-116.77l-8.065-90.371H251.15V0H29.864L53.66,266.875h197.478 M251.149,407.821l-0.387,0.117
		l-98.271-26.553l-6.289-70.382h-88.59l12.364,138.562l180.767,50.19l0.407-0.11V407.821"/>
	<path d="M455.984,178.634H236.5l0.786,88.241l122.228,0.01l-10.238,114.446l-98.426,26.564l-19.138-5.104l5.27,93.144l13.868,3.776
		l180.903-50.146l22.071-247.232l2.146-23.7 M471.922,0.005H228.153v88.253h235.041l1.957-19.834l4.444-44.747L471.913,0"/>
</g>
</svg>
