<?xml version="1.0" encoding="utf-8"?>
<!-- Generator: Adobe Illustrator 16.0.0, SVG Export Plug-In . SVG Version: 6.00 Build 0)  -->
<!DOCTYPE svg PUBLIC "-//W3C//DTD SVG 1.1//EN" "http://www.w3.org/Graphics/SVG/1.1/DTD/svg11.dtd">
<svg version="1.1" id="Layer_1" xmlns="http://www.w3.org/2000/svg" xmlns:xlink="http://www.w3.org/1999/xlink" x="0px" y="0px"
	 width="595.28px" height="841.89px" viewBox="0 0 595.28 841.89" enable-background="new 0 0 595.28 841.89" xml:space="preserve">
<rect fill="#010101" width="595.28" height="844.223"/>
<g id="logo">
	<path id="j" fill="#FFFFFF" d="M128.649,740.695l48.213-29.178c9.301,16.492,17.763,30.445,38.058,30.445
		c19.453,0,31.719-7.611,31.719-37.211v-201.3h59.203V705.59c0,61.32-35.943,89.23-88.385,89.23
		c-47.361,0-74.853-24.527-88.808-54.129"/>
	<path id="s" fill="#FFFFFF" d="M338,734.352l48.206-27.91c12.689,20.723,29.183,35.947,58.361,35.947
		c24.531,0,40.174-12.266,40.174-29.182c0-20.299-16.069-27.488-43.136-39.326l-14.797-6.348
		c-42.715-18.182-71.051-41.018-71.051-89.227c0-44.404,33.832-78.238,86.695-78.238c37.638,0,64.703,13.111,84.154,47.367
		l-46.097,29.602c-10.15-18.184-21.143-25.373-38.058-25.373c-17.339,0-28.335,10.996-28.335,25.373
		c0,17.762,10.996,24.951,36.367,35.947l14.801,6.344c50.324,21.568,78.659,43.557,78.659,93.033
		c0,53.287-41.866,82.465-98.109,82.465C390.859,794.826,355.336,768.609,338,734.352"/>
</g>
</svg>
