<?xml version="1.0" encoding="utf-8"?>
<!-- Generator: Adobe Illustrator 16.0.0, SVG Export Plug-In . SVG Version: 6.00 Build 0)  -->
<!DOCTYPE svg PUBLIC "-//W3C//DTD SVG 1.1//EN" "http://www.w3.org/Graphics/SVG/1.1/DTD/svg11.dtd">
<svg version="1.1" id="Layer_1" xmlns="http://www.w3.org/2000/svg" xmlns:xlink="http://www.w3.org/1999/xlink" x="0px" y="0px"
	 width="500px" height="500px" viewBox="0 0 500 500" enable-background="new 0 0 500 500" xml:space="preserve">
<rect fill="#020202" width="501" height="500"/>
<g id="logo">
	<path id="j" fill="#FFFFFF" d="M118.905,407.49l38.398-23.238c7.409,13.135,14.148,24.248,30.312,24.248
		c15.494,0,25.262-6.062,25.262-29.637V218.539h47.152v160.992c0,48.838-28.626,71.066-70.393,71.066
		c-37.721,0-59.617-19.533-70.731-43.11"/>
	<path id="s" fill="#FFFFFF" d="M285.642,402.438l38.394-22.229c10.105,16.505,23.242,28.63,46.48,28.63
		c19.538,0,31.996-9.77,31.996-23.242c0-16.167-12.797-21.893-34.354-31.32l-11.785-5.057
		c-34.021-14.48-56.588-32.668-56.588-71.063c0-35.366,26.945-62.312,69.047-62.312c29.978,0,51.532,10.442,67.024,37.726
		l-36.714,23.575c-8.084-14.481-16.84-20.208-30.312-20.208c-13.81,0-22.567,8.758-22.567,20.208
		c0,14.147,8.758,19.873,28.965,28.63l11.788,5.053c40.08,17.178,62.647,34.691,62.647,74.096c0,42.44-33.344,65.679-78.138,65.679
		C327.74,450.603,299.449,429.723,285.642,402.438"/>
</g>
</svg>
