<?xml version="1.0" encoding="utf-8"?>
<!-- Generator: Adobe Illustrator 16.0.0, SVG Export Plug-In . SVG Version: 6.00 Build 0)  -->
<!DOCTYPE svg PUBLIC "-//W3C//DTD SVG 1.1//EN" "http://www.w3.org/Graphics/SVG/1.1/DTD/svg11.dtd">
<svg version="1.1" id="Layer_1" xmlns="http://www.w3.org/2000/svg" xmlns:xlink="http://www.w3.org/1999/xlink" x="0px" y="0px"
	 width="464.963px" height="464.963px" viewBox="0 0 464.963 464.963" enable-background="new 0 0 464.963 464.963"
	 xml:space="preserve">
<g id="Layer_2">
	<polygon fill="#646464" points="165.559,15.719 301.981,15.719 301.981,56.983 311.884,60.897 310.316,134.981 154.507,134.981 
		154.507,50.718 165.559,51.767 	"/>
</g>
<g id="Capa_1">
	<g>
		<g>
			<path d="M218.239,464.934c1.198,0.084,2.271-0.03,3.275-0.224c0.838,0.159,1.728,0.237,2.676,0.224
				c77.955-1.142,145.804-37.763,157.367-120.048c10.483-74.593-22.95-152.458-68.377-210.643
				c6.975-5.176,12.583-12.04,13.119-21.131c0.546-9.227-4.27-16.549-10.565-22.516c5.746-4.91,10.094-11.166,10.565-19.118
				c0.77-13.021-9.059-22.287-18.781-29.233c-0.376-0.27-0.749-0.438-1.122-0.646c2.795-3.407,4.745-7.395,5.027-12.116
				c0.648-10.942-7.617-18.736-15.792-24.577c-0.558-0.399-1.112-0.688-1.668-0.954c-1.599-1.649-3.808-2.787-6.713-2.908
				c-41.555-1.702-82.958-2.606-123.527,7.854c-2.63,0.688-4.433,2.098-5.58,3.839c-0.96,1.041-1.742,2.347-2.245,3.981
				c-3.006,9.892-1.833,19.885,3.268,28.223c-2.851,0.642-5.692,1.32-8.536,2.053c-3.128,0.809-5.268,2.492-6.639,4.564
				c-1.138,1.239-2.065,2.788-2.659,4.737c-3.719,12.229-2.013,24.558,4.677,34.702c-0.787,0.665-1.479,1.393-2.018,2.198
				c-1.138,1.238-2.065,2.787-2.659,4.737c-4.054,13.313-1.729,26.775,6.528,37.374C58.576,239.739,39.098,452.272,218.239,464.934z
				 M293.803,61.298c0.515,0.521,1.061,1.03,1.706,1.492c2.292,1.641,4.258,3.475,6.167,5.557c0.536,0.584,0.67,1.649,0.779,1.884
				c-0.774,2.117-3.702,4.042-6.558,5.545c-1.021-0.27-2.097-0.457-3.303-0.457c-42.211,0.071-84.388,1.046-126.562,2.845
				c-2.057-2.967-2.854-6.129-2.717-9.639C206.27,58.576,249.942,59.541,293.803,61.298z M293.803,102.933
				c0.515,0.521,1.061,1.03,1.706,1.492c2.292,1.641,4.258,3.474,6.167,5.556c0.536,0.589,0.67,1.655,0.779,1.89
				c-0.774,2.111-3.702,4.036-6.558,5.54c-1.021-0.27-2.097-0.457-3.303-0.457c-42.211,0.07-84.388,1.047-126.562,2.845
				c-2.057-2.96-2.854-6.13-2.717-9.639C206.27,100.216,249.942,101.175,293.803,102.933z M284.107,20.928
				c0.434,0.437,0.891,0.868,1.437,1.255c1.93,1.376,3.583,2.92,5.185,4.666c0.452,0.498,0.562,1.393,0.655,1.59
				c-0.655,1.777-3.115,3.393-5.519,4.661c-0.856-0.229-1.762-0.386-2.781-0.386c-35.492,0.064-70.952,0.879-106.411,2.392
				c-1.731-2.487-2.396-5.147-2.285-8.104C210.5,18.638,247.223,19.45,284.107,20.928z M167.165,149.167
				c1.6-1.809,2.463-3.741,2.854-5.683c15.925-0.659,31.854-1.128,47.784-1.549c-2.145,31.569-2.488,63.17-2.524,94.803
				c-21.835,19.469-36.564,44.797-43.208,73.354c-3.469,14.927,19.471,21.267,22.942,6.321
				c5.428-23.342,16.533-43.176,33.446-59.521c17.919,14.256,30.741,33.14,36.804,55.553c4.004,14.794,26.957,8.509,22.942-6.32
				c-7.879-29.13-25.319-52.956-49.125-70.833c0.048-31.329,0.41-62.629,2.554-93.891c15.635-0.295,31.271-0.573,46.908-0.619
				c0.426,0.827,0.934,1.646,1.589,2.434c41.663,50.541,70.267,115.825,69.294,182.061c-1.15,78.549-62.805,114.81-135.237,115.867
				c-1.173,0.019-2.225,0.208-3.209,0.484c-0.856-0.243-1.763-0.411-2.742-0.484C59.825,429.944,90.568,235.746,167.165,149.167z"/>
		</g>
	</g>
</g>
</svg>
