<?xml version="1.0" encoding="utf-8"?>
<!-- Generator: Adobe Illustrator 16.0.0, SVG Export Plug-In . SVG Version: 6.00 Build 0)  -->
<!DOCTYPE svg PUBLIC "-//W3C//DTD SVG 1.1//EN" "http://www.w3.org/Graphics/SVG/1.1/DTD/svg11.dtd">
<svg version="1.1" xmlns="http://www.w3.org/2000/svg" xmlns:xlink="http://www.w3.org/1999/xlink" x="0px" y="0px" width="512px"
	 height="512px" viewBox="0 0 512 512" enable-background="new 0 0 512 512" xml:space="preserve">
<g id="Layer_2">
	<circle cx="256" cy="256" r="256"/>
</g>
<g id="Capa_1">
	<g>
		<path id="LinkedIn_3_" fill="#FFFFFF" d="M429.5,281.771v124.402h-72.163V290.047c0-29.198-10.405-49.04-36.517-49.04
			c-19.971,0-31.751,13.434-37.008,26.363c-1.895,4.655-2.469,11.178-2.469,17.613v121.176H209.25c0,0,0.968-196.607,0-216.969
			h72.108v30.752c-0.097,0.253-0.309,0.462-0.407,0.743h0.407v-0.743c9.633-14.78,26.699-35.844,65.026-35.844
			C393.95,184.099,429.5,215.105,429.5,281.771z M133.763,84.577c-24.666,0-40.821,16.183-40.821,37.526
			c0,20.768,15.678,37.499,39.896,37.499h0.436c25.213,0,40.834-16.73,40.834-37.499C173.618,100.76,158.487,84.577,133.763,84.577z
			 M97.247,406.173h72.123V189.177H97.247V406.173z"/>
	</g>
</g>
</svg>
