<?xml version="1.0" encoding="utf-8"?>
<!-- Generator: Adobe Illustrator 16.0.0, SVG Export Plug-In . SVG Version: 6.00 Build 0)  -->
<!DOCTYPE svg PUBLIC "-//W3C//DTD SVG 1.1//EN" "http://www.w3.org/Graphics/SVG/1.1/DTD/svg11.dtd">
<svg version="1.1" id="Layer_1" xmlns="http://www.w3.org/2000/svg" xmlns:xlink="http://www.w3.org/1999/xlink" x="0px" y="0px"
	 width="595.28px" height="841.89px" viewBox="0 0 595.28 841.89" enable-background="new 0 0 595.28 841.89" xml:space="preserve">
<g id="Layer_2">
	<g id="prog">
		<g id="php">
			<path fill="#010101" d="M-1,571.32c7.106-36.104,13.733-70.048,20.48-104.021c8.065-40.421,16.462-80.782,24.139-121.293
				c1.648-8.606,5.067-11.694,13.823-11.425c30.945,0.9,62.101-0.989,92.776,2.219c35.354,3.778,52.686,24.499,54.185,59.582
				c1.421,27.085-6.649,53.819-22.819,75.594c-17.662,24.408-42.07,36.493-72.057,37.303c-12.804,0.33-25.638,0.539-38.411,0
				c-8.696-0.36-13.554,1.35-14.783,11.454c-1.68,13.884-5.728,27.438-8.066,41.261c-1.199,7.017-4.138,9.806-11.395,9.506
				C24.968,570.96,13.033,571.32-1,571.32z M66.198,473.026c20.24-2.489,37.962-3.209,54.874-7.316
				c8.187-2.01,18.562-8.816,21.47-16.073c6.188-16.421,10.327-33.542,12.324-50.976c1.5-11.335-5.667-19.791-17.991-20.99
				c-14.273-1.409-28.637-2.339-42.97-2.609c-2.999,0-8.366,2.999-8.996,5.667C78.612,410.056,72.915,439.441,66.198,473.026z"/>
			<path fill="#010101" d="M388.486,571.32c7.077-35.983,13.733-69.897,20.48-103.842c8.036-40.421,16.372-80.962,23.989-121.323
				c1.619-8.456,4.857-11.814,13.763-11.515c31.756,1.02,63.75-0.839,95.235,2.549c34.514,3.688,55.204,30.436,51.906,65.129
				c-1.602,18.841-6.388,37.274-14.153,54.515c-15.833,33.674-43.78,51.726-81.772,52.385c-13.224,0.24-26.447,0.42-39.641,0
				c-7.497-0.239-11.095,1.979-12.265,9.985c-2.129,14.243-5.997,28.247-8.276,42.46c-1.259,7.827-5.037,10.075-12.474,9.775
				C413.495,570.96,401.65,571.32,388.486,571.32z M455.564,472.756c19.251-2.129,35.983-3.777,52.476-5.997
				c12.534-1.559,22.34-8.546,25.998-20.21c4.902-15.58,8.346-31.581,10.285-47.798c1.35-11.515-5.577-19.851-17.991-20.99
				c-14.273-1.439-28.667-2.458-43-2.608c-4.025,0.504-7.522,3.009-9.296,6.657c-6.237,28.907-11.814,57.933-18.441,90.947H455.564z
				"/>
			<path fill="#010101" d="M206.412,509.279c3.898-19.701,7.406-37.753,11.035-55.804c11.364-56.494,22.969-113.017,33.944-169.69
				c1.679-8.696,4.888-11.904,13.703-11.395c11.035,0.689,22.159,0.18,35.264,0.18l-11.845,62.251c7.437,0,13.794-0.21,20.15,0
				c12.361-0.02,24.714,0.641,37.003,1.979c37.302,5.577,49.956,23.089,43.18,60.242c-6.207,34.034-13.704,67.858-20.271,101.952
				c-1.5,7.826-4.738,11.125-13.104,10.615c-11.634-0.811-23.629-0.33-36.822-0.33c6.627-32.984,12.624-64.2,19.071-95.205
				c7.076-33.975,3.388-38.982-30.766-38.982c-26.777,0-26.747,0-31.995,26.417c-6.447,32.325-13.224,64.59-19.341,97.004
				c-1.499,7.946-4.618,11.275-12.954,10.825C231.24,508.89,219.756,509.279,206.412,509.279z"/>
		</g>
	</g>
</g>
</svg>
