<?xml version="1.0" encoding="utf-8"?>
<!-- Generator: Adobe Illustrator 16.0.0, SVG Export Plug-In . SVG Version: 6.00 Build 0)  -->
<!DOCTYPE svg PUBLIC "-//W3C//DTD SVG 1.1//EN" "http://www.w3.org/Graphics/SVG/1.1/DTD/svg11.dtd">
<svg version="1.1" id="Layer_1" xmlns="http://www.w3.org/2000/svg" xmlns:xlink="http://www.w3.org/1999/xlink" x="0px" y="0px"
	 width="500px" height="500px" viewBox="0 0 500 500" enable-background="new 0 0 500 500" xml:space="preserve">
<g id="Layer_2">
	<g id="prog">
		<g id="php">
			<path fill="#010101" d="M-1,376.466c5.969-30.324,11.535-58.835,17.202-87.372c6.775-33.951,13.828-67.852,20.275-101.878
				c1.385-7.229,4.256-9.823,11.611-9.596c25.992,0.755,52.161-0.832,77.927,1.864c29.694,3.173,44.252,20.577,45.512,50.045
				c1.193,22.75-5.585,45.205-19.167,63.495c-14.835,20.502-35.336,30.652-60.523,31.332c-10.754,0.277-21.534,0.453-32.264,0
				c-7.304-0.303-11.384,1.133-12.417,9.621c-1.41,11.661-4.811,23.045-6.775,34.656c-1.008,5.894-3.476,8.236-9.571,7.984
				C20.812,376.164,10.787,376.466-1,376.466z M55.443,293.904c17-2.09,31.886-2.694,46.091-6.145
				c6.876-1.688,15.59-7.405,18.034-13.5c5.197-13.793,8.673-28.174,10.352-42.817c1.259-9.521-4.76-16.623-15.112-17.63
				c-11.989-1.184-24.053-1.965-36.092-2.191c-2.519,0-7.027,2.519-7.556,4.76C65.87,241.014,61.084,265.696,55.443,293.904z"/>
			<path fill="#010101" d="M326.146,376.466c5.944-30.224,11.536-58.71,17.203-87.22c6.749-33.951,13.751-68.004,20.148-101.905
				c1.36-7.103,4.08-9.923,11.561-9.671c26.673,0.856,53.547-0.705,79.992,2.141c28.989,3.098,46.368,25.564,43.598,54.705
				c-1.345,15.825-5.365,31.308-11.888,45.789c-13.299,28.284-36.772,43.446-68.684,44c-11.107,0.201-22.215,0.354-33.297,0
				c-6.296-0.201-9.318,1.662-10.301,8.387c-1.788,11.965-5.037,23.727-6.951,35.664c-1.058,6.574-4.231,8.463-10.478,8.211
				C347.151,376.164,337.203,376.466,326.146,376.466z M382.488,293.678c16.169-1.787,30.224-3.173,44.076-5.037
				c10.527-1.309,18.764-7.178,21.836-16.975c4.117-13.086,7.01-26.526,8.639-40.147c1.134-9.672-4.685-16.674-15.111-17.631
				c-11.989-1.209-24.078-2.065-36.117-2.191c-3.381,0.423-6.318,2.527-7.808,5.591c-5.239,24.28-9.924,48.66-15.49,76.39H382.488z"
				/>
			<path fill="#010101" d="M173.214,324.355c3.274-16.548,6.221-31.71,9.269-46.872c9.545-47.451,19.292-94.927,28.511-142.53
				c1.411-7.304,4.105-9.999,11.51-9.571c9.269,0.58,18.613,0.151,29.619,0.151l-9.949,52.287c6.247,0,11.585-0.176,16.925,0
				c10.383-0.016,20.758,0.539,31.08,1.663c31.332,4.685,41.961,19.394,36.269,50.599c-5.214,28.587-11.511,56.998-17.026,85.634
				c-1.259,6.573-3.979,9.344-11.006,8.916c-9.772-0.681-19.848-0.277-30.93-0.277c5.566-27.705,10.604-53.924,16.02-79.967
				c5.943-28.536,2.846-32.742-25.842-32.742c-22.491,0-22.466,0-26.874,22.189c-5.415,27.151-11.107,54.251-16.245,81.478
				c-1.259,6.675-3.878,9.47-10.88,9.093C194.068,324.027,184.422,324.355,173.214,324.355z"/>
		</g>
	</g>
</g>
</svg>
