<?xml version="1.0" encoding="utf-8"?>
<!-- Generator: Adobe Illustrator 16.0.0, SVG Export Plug-In . SVG Version: 6.00 Build 0)  -->
<!DOCTYPE svg PUBLIC "-//W3C//DTD SVG 1.1//EN" "http://www.w3.org/Graphics/SVG/1.1/DTD/svg11.dtd">
<svg version="1.1" id="Layer_1" xmlns="http://www.w3.org/2000/svg" xmlns:xlink="http://www.w3.org/1999/xlink" x="0px" y="0px"
	 width="500px" height="500px" viewBox="0 0 500 500" enable-background="new 0 0 500 500" xml:space="preserve">
<g id="XMLID_449_" display="none">
	<path id="XMLID_450_" display="inline" fill="#010101" d="M6.375,457.418h90.498c2.416,0,4.536-1.611,5.184-3.94l26.393-95.146
		h102.459l28.634,95.258c0.684,2.272,2.776,3.828,5.15,3.828h93.932c0.018,0,0.034,0,0.043,0c2.97,0,5.377-2.407,5.377-5.377
		c0-0.794-0.168-1.547-0.479-2.225L244.056,64.411c-0.696-2.25-2.781-3.786-5.138-3.786H124.365c-2.366,0-4.453,1.544-5.143,3.805
		L1.234,450.469c-0.495,1.63-0.193,3.4,0.82,4.77C3.069,456.608,4.669,457.418,6.375,457.418z M215.123,282.28h-71.069l21-75.068
		c3.813-13.526,7.418-29.533,10.905-45.012c0.797-3.556,1.583-7.044,2.361-10.455c4.614,18.544,9.688,38.579,14.774,55.523
		L215.123,282.28z"/>
	<path id="XMLID_453_" display="inline" fill="#010101" d="M403.823,166.585c-2.971,0-5.377,2.407-5.377,5.377v280.078
		c0,2.97,2.406,5.377,5.377,5.377h87.059c2.971,0,5.377-2.407,5.377-5.377V171.963c0-2.97-2.406-5.377-5.377-5.377H403.823z"/>
	<path id="XMLID_454_" display="inline" fill="#010101" d="M446.782,142.969c30.33,0,52.342-20.568,52.342-49.028
		c-0.66-29.062-21.949-49.359-51.77-49.359c-15.225,0-28.741,5.253-38.064,14.794c-8.747,8.947-13.408,21.263-13.137,34.686
		c-0.277,12.998,4.395,25.092,13.16,34.07C418.657,137.7,431.965,142.969,446.782,142.969z"/>
</g>
<g id="XMLID_309_" display="none">
	<path id="XMLID_311_" display="inline" fill="#010101" d="M92.706,451.828V315.233c6.711,0.71,14.625,1.08,23.264,1.08
		c52.647,0,95.214-15.078,123.114-43.616c22.854-23.572,35.446-58.688,35.446-98.878c0-39.035-15.038-74.33-41.232-96.817
		c-25.751-22.36-63.592-33.232-115.685-33.232c-45.125,0-83.257,2.818-113.345,8.378C1.802,52.601,0,54.92,0,57.633v394.195
		c0,3.074,2.294,5.565,5.126,5.565H87.58C90.412,457.394,92.706,454.902,92.706,451.828z M92.706,234.43V125.504
		c5.034-1.049,14.488-2.436,29.27-2.436c38.038,0,59.852,19.362,59.852,53.119c0,37.343-24.82,59.641-66.403,59.641
		C105.449,235.828,98.344,235.401,92.706,234.43z"/>
	<path id="XMLID_334_" display="inline" fill="#010101" d="M423.945,269.336c-33.971-12.906-39.702-19.053-39.702-27.943
		c0-15.789,16.627-18.146,26.543-18.146c21.054,0,43.016,8.574,55.425,15.916c1.391,0.821,3.043,0.901,4.497,0.218
		c1.445-0.685,2.525-2.057,2.919-3.717l14.745-62.236c0.601-2.54-0.513-5.191-2.672-6.362
		c-15.307-8.307-43.739-17.187-77.647-17.187c-66.995,0-113.786,41.29-113.786,100.314c-0.453,28.798,12.952,68.225,79.402,92.507
		c32.278,11.683,35.811,17.753,35.811,27.919c0,4.635,0,18.738-30.364,18.738c-22.748,0-53.459-10.968-68.87-21.127
		c-1.398-0.92-3.108-1.063-4.617-0.388c-1.505,0.675-2.626,2.089-3.021,3.807l-14.74,64.615c-0.562,2.465,0.484,5.026,2.539,6.233
		c22.55,13.231,54.885,20.821,88.709,20.821c74.563,0,120.883-38.019,120.883-99.296
		C499.407,317.965,475.942,288.76,423.945,269.336z"/>
</g>
<g id="XMLID_444_" display="none">
	<path id="XMLID_445_" display="inline" fill="#010101" d="M6.034,456.123h98.339c3.333,0,6.034-2.363,6.034-5.278V71.968
		c0-2.916-2.701-5.278-6.034-5.278H6.034C2.701,66.69,0,69.052,0,71.968v378.876C0,453.76,2.701,456.123,6.034,456.123z"/>
	<path id="XMLID_446_" display="inline" fill="#010101" d="M300.396,462.305c39.228,0,73.712-14.043,95.095-38.148l3.022,27.198
		c0.301,2.705,2.898,4.769,6.004,4.769h86.771c0.02,0,0.039,0,0.049,0c3.333,0,6.034-2.363,6.034-5.278
		c0-0.337-0.034-0.665-0.104-0.986c-1.256-18.5-2.509-50.506-2.509-81.087V51.731c0-2.916-2.7-5.278-6.034-5.278h-97.701
		c-3.334,0-6.034,2.362-6.034,5.278v135.715c-17.465-14.717-45.044-22.945-78.167-22.945c-37.413,0-72.481,12.727-98.75,35.839
		c-31.764,27.951-48.377,67.931-48.047,115.589C160.025,400.746,219.057,462.305,300.396,462.305z M331.887,383.731
		c-37.511,0-60.813-27.056-60.813-70.61c0-33.608,16.101-72.86,61.461-72.86c28.732,0,46.415,18.938,51.253,37.782
		c0.588,4.162,1.201,10.023,1.201,14.276v35.976c0,7.532-0.707,13-2.358,18.281c-0.033,0.104-0.061,0.207-0.09,0.312
		C377.271,368.926,356.915,383.731,331.887,383.731z"/>
</g>
<path fill="#010101" d="M252.012,57.873l95.458,112.821H156.51L252.012,57.873z M371.955,43.45H264.407l96.79,114.414L371.955,43.45
	z M142.61,158.072L239.626,43.45H130.824L142.61,158.072z M251.939,452.592l102.502-262.126H149.504L251.939,452.592z
	 M374.079,190.466L269.891,456.842l233.532-266.37H374.079V190.466z M125.766,170.694L113.548,51.822L1.227,170.694H125.766z
	 M378.126,170.694h122.819L389.211,52.478L378.126,170.694z M129.906,190.466H0.534l233.372,266.156L129.906,190.466z"/>
</svg>
