<?xml version="1.0" encoding="utf-8"?>
<!-- Generator: Adobe Illustrator 16.0.0, SVG Export Plug-In . SVG Version: 6.00 Build 0)  -->
<!DOCTYPE svg PUBLIC "-//W3C//DTD SVG 1.1//EN" "http://www.w3.org/Graphics/SVG/1.1/DTD/svg11.dtd">
<svg version="1.1" id="Layer_1" xmlns:sketch="http://www.bohemiancoding.com/sketch/ns"
	 xmlns="http://www.w3.org/2000/svg" xmlns:xlink="http://www.w3.org/1999/xlink" x="0px" y="0px" width="500px" height="500px"
	 viewBox="0 0 500 500" enable-background="new 0 0 500 500" xml:space="preserve">
<title>Shape</title>
<desc>Created with Sketch.</desc>
<g sketch:type="MSPage">
	<g transform="translate(-1.000000, 0.000000)" sketch:type="MSLayerGroup">
		<path sketch:type="MSShapeGroup" d="M497.498,143.801c-1.855,4.375-2.784,8.202-4.794,11.118
			c-56.601,85.295-113.511,170.409-170.266,255.703c-16.856,25.333-33.712,50.668-50.568,76
			c-8.351,12.577-14.537,12.94-23.506,0.548c-73.767-100.971-147.378-202.12-220.99-303.09c-5.413-7.291-10.825-14.58-16.083-22.053
			c-6.186-8.566-6.032-14.398,0.464-22.236C46.859,97.508,82.119,55.225,117.068,12.942c4.794-5.833,10.053-8.566,17.011-8.566
			c77.478,0.183,155.11,0.183,232.587,0c8.66,0,15.001,3.099,21.032,10.207c34.177,39.548,68.663,78.733,102.84,118.101
			C493.323,135.781,495.179,139.791,497.498,143.801L497.498,143.801z M258.261,433.221c0.619,0,1.237-0.182,1.855-0.182
			c20.414-89.305,40.827-178.61,61.396-268.826H185.268C209.856,254.611,233.981,343.915,258.261,433.221L258.261,433.221z
			 M41.756,163.849c63.714,87.301,126.037,172.777,188.359,258.072c-4.639-24.239-10.98-47.203-17.166-70.351
			c-16.238-59.778-32.476-119.741-48.404-179.52c-1.701-6.378-4.176-8.566-9.743-8.202c-9.433,0.547-19.021,0-28.61,0H41.756
			L41.756,163.849z M458.682,163.849h-92.633c-6.959,0-15.619-2.369-20.259,1.641c-4.484,4.01-4.639,14.581-6.649,22.417
			c0,0.364-0.155,0.547-0.155,0.911c-16.237,70.532-32.32,141.064-48.56,211.78c-1.391,6.196-2.628,12.575-4.02,18.954
			c0.464,0.365,1.083,0.546,1.547,0.911C344.397,335.351,400.999,250.602,458.682,163.849L458.682,163.849z M311.924,138.151
			c-19.795-32.624-38.508-63.425-57.529-94.956c-20.104,32.077-39.28,62.696-59.384,94.956H311.924L311.924,138.151z
			 M463.94,137.969c-29.074-33.171-56.446-64.336-84.747-96.595c-9.434,33.17-18.248,64.336-27.372,96.595H463.94L463.94,137.969z
			 M124.492,41.556c-26.909,32.441-52.889,63.424-79.797,95.866h109.334C144.132,105.345,134.699,74.544,124.492,41.556
			L124.492,41.556z M174.443,126.851c20.258-32.441,39.744-63.425,59.847-95.501h-89.23
			C154.802,63.244,164.39,94.227,174.443,126.851L174.443,126.851z M274.344,31.167c19.485,32.077,38.042,62.696,57.374,94.772
			c9.434-32.988,18.093-63.424,26.907-94.772H274.344L274.344,31.167z"/>
	</g>
</g>
</svg>
