<?xml version="1.0" encoding="utf-8"?>
<!-- Generator: Adobe Illustrator 16.0.0, SVG Export Plug-In . SVG Version: 6.00 Build 0)  -->
<!DOCTYPE svg PUBLIC "-//W3C//DTD SVG 1.1//EN" "http://www.w3.org/Graphics/SVG/1.1/DTD/svg11.dtd">
<svg version="1.1" id="Layer_1" xmlns="http://www.w3.org/2000/svg" xmlns:xlink="http://www.w3.org/1999/xlink" x="0px" y="0px"
	 width="500px" height="500px" viewBox="0 0 500 500" enable-background="new 0 0 500 500" xml:space="preserve">
<polygon fill="#010101" points="40.203,386.521 3.927,495.346 112.753,459.07 "/>
<path fill="#010101" d="M488.77,42.012l-31.509-31.51c-11.334-11.336-29.704-11.336-41.041,0l-27.777,27.777l72.551,72.551
	l27.771-27.773l0,0C500.102,71.722,500.102,53.347,488.77,42.012z"/>
<polygon fill="#010101" points="381.188,292.205 360.665,271.682 350.919,261.938 292.881,319.979 311.646,338.742 282.625,367.762 
	294.129,379.266 305.631,390.769 334.65,361.749 355.175,382.273 326.156,411.292 349.161,434.299 378.181,405.278 398.706,425.802 
	369.685,454.822 410.208,495.346 497.268,408.286 "/>
<polygon fill="#010101" points="73.472,100.568 93.994,121.092 64.974,150.112 87.981,173.118 117.002,144.098 137.524,164.622 
	108.504,193.642 120.008,205.145 131.512,216.648 160.531,187.628 181.054,208.151 152.034,237.172 170.793,255.93 60.725,365.997 
	133.275,438.546 243.343,328.48 243.343,328.48 330.404,241.42 330.404,241.42 440.472,131.353 367.921,58.802 257.854,168.87 
	227.591,138.608 207.068,118.085 90.987,2.004 3.927,89.064 44.452,129.588 "/>
</svg>
