<?xml version="1.0" encoding="utf-8"?>
<!-- Generator: Adobe Illustrator 16.0.0, SVG Export Plug-In . SVG Version: 6.00 Build 0)  -->
<!DOCTYPE svg PUBLIC "-//W3C//DTD SVG 1.1//EN" "http://www.w3.org/Graphics/SVG/1.1/DTD/svg11.dtd">
<svg version="1.1" id="Layer_1" xmlns="http://www.w3.org/2000/svg" xmlns:xlink="http://www.w3.org/1999/xlink" x="0px" y="0px"
	 width="841.889px" height="595.281px" viewBox="0 0 841.889 595.281" enable-background="new 0 0 841.889 595.281"
	 xml:space="preserve">
<circle fill="#FFFFFF" cx="420.73" cy="297.427" r="256.286"/>
<g>
	<g>
		<path d="M689.05,297.641c0-147.666-119.979-268.105-268.106-268.105c-148.127-0.001-268.107,120.438-268.107,268.105
			c0,147.666,120.441,268.106,268.107,268.106S689.05,445.306,689.05,297.641z M190.676,297.641
			c0-126.9,103.367-230.269,230.268-230.268c126.9,0,230.268,103.367,230.268,230.268c0,126.9-103.367,230.267-230.268,230.267
			S190.676,424.541,190.676,297.641z"/>
		<path d="M554.766,359.475c3.692-3.691,5.538-8.306,5.538-13.382c0-4.615-1.846-9.69-5.538-13.383L432.942,210.887
			c-3.692-3.691-8.307-5.537-13.383-5.537s-9.689,1.846-13.381,5.537L284.352,332.711c-7.383,7.384-7.383,19.382,0,26.765
			c7.385,7.384,19.381,7.384,26.766,0l108.441-108.442l108.443,108.442C535.385,366.859,547.383,366.859,554.766,359.475
			L554.766,359.475z"/>
	</g>
</g>
</svg>
