<?xml version="1.0" encoding="utf-8"?>
<!-- Generator: Adobe Illustrator 16.0.0, SVG Export Plug-In . SVG Version: 6.00 Build 0)  -->
<!DOCTYPE svg PUBLIC "-//W3C//DTD SVG 1.1//EN" "http://www.w3.org/Graphics/SVG/1.1/DTD/svg11.dtd">
<svg version="1.1" id="Layer_1" xmlns="http://www.w3.org/2000/svg" xmlns:xlink="http://www.w3.org/1999/xlink" x="0px" y="0px"
	 width="500px" height="500px" viewBox="0 0 500 500" enable-background="new 0 0 500 500" xml:space="preserve">
<path fill="#010101" d="M460.234,250.144c0-21.904-3.375-43.106-9.492-62.974l-94.054,245.002
	C418.643,395.379,460.233,327.656,460.234,250.144L460.234,250.144z"/>
<path fill="#010101" d="M183.046,450.58c20.938,7.059,43.35,10.854,66.692,10.854c24.389,0,47.752-4.145,69.533-11.809
	L255.015,282.41L183.046,450.58L183.046,450.58z"/>
<path fill="#010101" d="M47.807,190.416c-5.559,18.934-8.596,38.975-8.596,59.728c0,79.179,43.427,148.171,107.617,184.318
	L48.451,191.742L47.807,190.416z"/>
<path fill="#010101" d="M155.053,176.788l-9.043-0.406c-19.726-0.329-17.542,20.228-17.542,20.228l69.991,176.205L245.512,260
	l-26.269-67.129c-10.518-17.75-36.185-17.563-36.185-17.563v-9.351h147.168l-0.218,10.372l-15.314,0.954
	c-19.07,0-15.214,18.209-15.214,18.209l63.862,171.239l18.307-47.418c32.471-73.892,12.44-128.578,12.44-128.578
	c-32.517-67.151,8.573-76.788,8.573-76.788c2.6-0.373,5.035-0.581,7.428-0.691c-38.611-45.542-96.129-74.431-160.341-74.431
	c-86.822,0-161.399,52.811-193.567,128.164l98.521-1.019l0.348,10.821L155.053,176.788z"/>
<path fill="#010101" d="M486.196,249.444c0,130.947-106.153,237.511-236.578,237.511c-130.49,0-236.644-106.564-236.644-237.511
	c0-130.982,106.154-237.502,236.644-237.502C380.043,11.953,486.196,118.463,486.196,249.444z M249.618,1
	C113.155,1,2.108,112.465,2.108,249.454c0,136.99,111.048,248.4,247.51,248.4c136.442,0,247.414-111.412,247.414-248.4
	C497.032,112.465,386.062,1,249.618,1z"/>
</svg>
